<svg xmlns="http://www.w3.org/2000/svg" viewBox="240 250 580 480" fill="none">
<path d="555.00 705.96 C579.70,709.00 603.40,698.57 618.48,678.03 C637.47,652.15 645.49,604.12 635.85,574.00 C626.46,544.67 601.37,531.23 567.86,537.59 C537.11,543.42 514.50,568.80 507.46,605.39 C505.42,616.04 505.39,640.65 507.41,652.00 C510.38,668.66 516.22,681.28 525.37,690.81 C534.53,700.36 542.45,704.41 555.00,705.96 ZM 408.00 705.95 C434.09,709.12 458.76,697.44 473.66,674.85 C486.35,655.62 493.90,625.47 492.74,598.68 C491.77,576.45 486.54,562.29 475.10,550.98 C461.74,537.78 444.63,533.49 421.45,537.54 C391.91,542.69 368.57,567.67 361.04,602.21 C359.01,611.52 358.13,628.29 359.07,639.81 C360.90,662.36 366.98,678.57 378.04,690.38 C387.26,700.24 395.26,704.39 408.00,705.95 ZM 684.00 703.40 C685.38,703.56 690.43,703.77 695.23,703.85 C702.39,703.97 705.17,703.54 710.73,701.45 C730.62,693.96 748.67,680.37 762.44,662.51 C773.81,647.76 778.83,638.13 783.03,623.00 C785.99,612.34 786.31,593.17 783.70,583.28 C777.83,561.06 761.76,547.16 735.82,541.87 C726.95,540.05 723.25,539.83 709.50,540.29 C691.69,540.88 683.50,542.50 667.66,548.57 L 658.16 552.20 L 657.43 560.85 C655.20,587.37 661.43,698.80 665.29,701.18 C665.90,701.56 669.80,702.14 673.95,702.48 C678.10,702.82 682.62,703.23 684.00,703.40 ZM 357.34 505.90 C365.70,507.30 380.01,507.08 386.91,505.46 C400.06,502.36 411.29,495.12 419.63,484.38 C431.22,469.46 432.97,446.99 423.98,428.50 C418.67,417.56 414.29,412.88 395.06,397.51 C374.68,381.22 370.00,375.11 370.00,364.79 C370.00,357.08 373.93,353.05 381.50,353.03 C391.81,352.99 396.60,358.86 400.43,376.26 C401.03,378.97 401.14,379.00 406.77,378.40 C417.42,377.27 425.71,375.18 431.87,372.07 C435.24,370.36 438.00,368.83 438.00,368.67 C438.00,366.84 434.18,356.23 431.87,351.64 C427.75,343.46 423.51,338.51 416.77,334.00 C408.76,328.66 401.56,326.18 390.38,324.94 C360.35,321.59 334.72,334.69 325.91,357.90 C323.30,364.75 322.35,378.17 323.88,386.50 C325.38,394.70 331.81,407.31 338.05,414.28 C340.89,417.46 349.58,425.16 357.36,431.39 C374.11,444.80 380.03,450.90 382.45,457.24 C384.53,462.66 384.01,468.80 381.09,473.61 C376.72,480.80 363.60,482.24 356.27,476.34 C348.83,470.36 345.23,462.24 344.27,449.25 C344.00,445.56 343.94,443.53 342.89,442.61 C341.65,441.52 338.99,442.03 332.89,443.20 C332.49,443.28 332.08,443.36 331.65,443.44 C323.42,445.01 316.54,447.15 311.79,449.61 C308.75,451.18 308.73,451.23 309.32,457.57 C310.29,467.90 314.99,477.72 323.16,486.47 C333.06,497.06 344.98,503.84 357.34,505.90 ZM 632.23 505.07 C641.31,507.30 656.35,507.48 664.91,505.46 C677.73,502.44 688.96,495.33 697.11,485.10 C709.25,469.86 711.24,447.00 702.05,428.50 C696.56,417.45 692.19,412.79 672.84,397.35 C656.34,384.17 651.52,379.03 649.16,372.10 C646.71,364.93 648.50,356.41 652.94,354.03 C654.00,353.46 656.98,353.00 659.57,353.00 C668.56,353.00 674.28,359.12 677.56,372.27 L 679.25 379.04 L 684.38 378.46 C694.08,377.36 703.60,374.95 709.82,372.01 C712.75,370.62 714.48,369.90 715.14,368.63 C716.04,366.90 714.99,364.15 712.39,357.32 C712.23,356.90 712.06,356.46 711.89,356.00 C706.22,341.12 694.34,330.69 678.43,326.64 C649.28,319.22 618.47,329.96 606.78,351.61 C596.41,370.83 600.28,396.74 616.16,414.45 C619.10,417.72 627.12,424.85 634.00,430.28 C655.83,447.55 661.97,454.94 661.99,464.04 C662.00,469.32 658.15,476.18 654.00,478.25 C649.83,480.33 642.18,480.52 637.72,478.65 C629.58,475.25 623.22,463.36 622.26,449.75 L 621.71 442.00 L 618.80 442.00 C612.88,442.00 595.96,446.42 589.92,449.54 C586.43,451.35 586.11,454.78 588.57,464.28 C591.11,474.06 594.69,479.93 603.39,488.53 C612.55,497.61 620.57,502.20 632.23,505.07 ZM 494.02 518.04 C495.20,520.25 495.49,520.28 507.57,519.67 C514.35,519.33 522.92,518.29 526.60,517.36 L 533.29 515.68 L 539.01 503.59 C556.37,466.88 573.81,414.20 583.41,369.50 C585.71,358.75 590.00,335.03 590.00,333.01 C590.00,330.95 551.20,322.47 549.50,324.16 C549.20,324.47 547.61,334.12 545.99,345.61 C541.03,380.61 535.40,411.28 529.39,436.00 C525.47,452.14 521.15,467.11 520.09,468.25 C519.13,469.29 517.65,464.77 513.60,448.50 C508.34,427.34 502.23,392.89 497.49,357.62 L 496.84 352.74 L 488.17 353.44 C483.40,353.82 476.12,354.78 472.00,355.56 C463.02,357.27 448.00,362.03 448.00,363.16 C448.00,367.35 456.87,404.47 463.61,428.50 C471.53,456.74 489.45,509.50 494.02,518.04 ZM 260.66 719.55 C261.25,721.10 262.64,721.21 274.41,720.71 C286.93,720.16 300.39,718.02 302.08,716.31 C302.74,715.64 304.41,681.53 305.29,651.01 L 305.50 643.53 L 309.50 642.86 C311.70,642.49 321.10,641.85 330.38,641.45 L 347.27 640.71 L 346.57 629.61 C345.81,617.56 345.22,612.47 344.09,608.23 C343.42,605.70 342.94,605.48 337.43,605.18 C332.20,604.90 322.44,605.75 309.41,607.63 L 305.32 608.22 L 304.71 589.89 C304.38,579.81 304.25,571.41 304.43,571.24 C304.60,571.06 316.17,569.77 330.12,568.36 C344.08,566.95 355.84,565.48 356.25,565.09 C357.72,563.73 359.16,547.40 358.52,539.50 C357.50,526.98 357.36,526.68 353.11,527.30 C297.71,535.36 275.20,538.25 257.25,539.57 C248.98,540.19 248.00,540.46 248.00,542.21 C248.00,543.28 249.10,552.33 250.45,562.33 C251.80,572.32 253.37,586.01 253.95,592.75 C254.53,599.49 255.45,610.29 255.99,616.75 C257.80,638.10 259.99,684.22 259.99,701.17 C260.00,710.34 260.30,718.61 260.66,719.55 ZM 731.59 358.10 C732.54,359.15 734.57,360.00 736.10,360.00 C738.47,360.00 740.46,358.09 749.08,347.50 C754.68,340.62 759.99,335.00 760.88,335.00 C761.77,335.00 767.23,336.83 773.00,339.07 L 774.51 339.66 C788.72,345.18 791.25,346.16 793.09,345.42 C793.55,345.23 793.97,344.94 794.52,344.58 C798.65,341.87 797.71,338.75 788.42,324.24 C783.71,316.87 780.07,310.31 780.35,309.67 C780.62,309.03 784.98,303.55 790.02,297.50 C795.06,291.45 799.53,285.62 799.94,284.54 C801.00,281.79 800.11,279.12 797.57,277.46 C795.65,276.19 793.76,276.47 780.08,280.08 C771.64,282.30 764.14,283.88 763.40,283.60 C762.66,283.32 760.36,280.32 758.28,276.94 C751.86,266.51 745.78,257.53 744.61,256.77 C744.00,256.36 742.27,256.02 740.77,256.02 C736.19,255.99 735.23,258.89 734.44,275.24 C734.05,283.43 733.24,290.62 732.62,291.42 C732.00,292.21 724.56,294.66 716.09,296.88 C707.61,299.10 700.30,301.50 699.85,302.21 C698.39,304.51 698.94,308.85 700.87,310.20 C701.90,310.92 709.15,313.98 716.99,317.00 L 731.23 322.50 L 730.55 339.35 C729.94,354.47 730.05,356.40 731.59,358.10 ZM 435.19 672.03 C432.14,675.47 430.72,676.28 427.00,676.68 C420.58,677.39 416.42,674.36 412.29,666.00 C408.11,657.52 406.00,646.65 405.33,630.00 C404.08,599.35 409.57,574.71 419.10,568.16 C423.66,565.02 431.74,565.48 435.61,569.08 C442.92,575.91 445.00,586.59 445.00,617.21 C444.99,650.06 442.54,663.75 435.19,672.03 ZM 577.93 675.54 C574.47,677.32 571.45,677.34 567.50,675.60 C563.51,673.84 561.59,671.53 558.62,664.97 C554.76,656.45 552.94,645.89 552.34,628.50 C551.25,597.03 557.17,572.58 567.13,567.43 C573.71,564.03 582.30,566.63 585.95,573.13 C590.49,581.20 591.23,586.14 591.73,611.81 C592.54,652.88 588.85,669.89 577.93,675.54 ZM 708.10 666.93 C705.48,668.62 703.03,670.00 702.66,670.00 C701.44,670.00 702.03,617.77 703.51,594.50 C704.31,581.85 704.98,570.49 704.98,569.25 C705.00,567.18 705.46,567.00 710.75,567.01 C721.69,567.03 730.41,573.25 735.90,584.95 C738.32,590.11 738.50,591.47 738.47,604.50 C738.43,620.77 736.60,628.88 729.99,642.02 C725.50,650.94 715.79,662.00 708.10,666.93 Z" fill="#F16A34"/>
<path d="M 260.66 719.55 C260.30,718.61 260.00,710.34 259.99,701.17 C259.99,684.22 257.80,638.10 255.99,616.75 C255.45,610.29 254.53,599.49 253.95,592.75 C253.37,586.01 251.80,572.32 250.45,562.33 C249.10,552.33 248.00,543.28 248.00,542.21 C248.00,540.46 248.98,540.19 257.25,539.57 C275.20,538.25 297.71,535.36 353.11,527.30 C357.36,526.68 357.50,526.98 358.52,539.50 C359.16,547.40 357.72,563.73 356.25,565.09 C355.84,565.48 344.08,566.95 330.12,568.36 C316.17,569.77 304.60,571.06 304.43,571.24 C304.25,571.41 304.38,579.81 304.71,589.89 L 305.32 608.22 L 309.41 607.63 C322.44,605.75 332.20,604.90 337.43,605.18 C342.94,605.48 343.42,605.70 344.09,608.23 C345.22,612.47 345.81,617.56 346.57,629.61 L 347.27 640.71 L 330.38 641.45 C321.10,641.85 311.70,642.49 309.50,642.86 L 305.50 643.53 L 305.29 651.01 C304.41,681.53 302.74,715.64 302.08,716.31 C300.39,718.02 286.93,720.16 274.41,720.71 C262.64,721.21 261.25,721.10 260.66,719.55 ZM 408.00 705.95 C395.26,704.39 387.26,700.24 378.04,690.38 C366.98,678.57 360.90,662.36 359.07,639.81 C358.13,628.29 359.01,611.52 361.04,602.21 C368.57,567.67 391.91,542.69 421.45,537.54 C444.63,533.49 461.74,537.78 475.10,550.98 C486.54,562.29 491.77,576.45 492.74,598.68 C493.90,625.47 486.35,655.62 473.66,674.85 C458.76,697.44 434.09,709.12 408.00,705.95 ZM 435.19 672.03 C442.54,663.75 444.99,650.06 445.00,617.21 C445.00,586.59 442.92,575.91 435.61,569.08 C431.74,565.48 423.66,565.02 419.10,568.16 C409.57,574.71 404.08,599.35 405.33,630.00 C406.00,646.65 408.11,657.52 412.29,666.00 C416.42,674.36 420.58,677.39 427.00,676.68 C430.72,676.28 432.14,675.47 435.19,672.03 ZM 555.00 705.96 C542.45,704.41 534.53,700.36 525.37,690.81 C516.22,681.28 510.38,668.66 507.41,652.00 C505.39,640.65 505.42,616.04 507.46,605.39 C514.50,568.80 537.11,543.42 567.86,537.59 C601.37,531.23 626.46,544.67 635.85,574.00 C645.49,604.12 637.47,652.15 618.48,678.03 C603.40,698.57 579.70,709.00 555.00,705.96 ZM 577.93 675.54 C588.85,669.89 592.54,652.88 591.73,611.81 C591.23,586.14 590.49,581.20 585.95,573.13 C582.30,566.63 573.71,564.03 567.13,567.43 C557.17,572.58 551.25,597.03 552.34,628.50 C552.94,645.89 554.76,656.45 558.62,664.97 C561.59,671.53 563.51,673.84 567.50,675.60 C571.45,677.34 574.47,677.32 577.93,675.54 ZM 684.00 703.40 C682.62,703.23 678.10,702.82 673.95,702.48 C669.80,702.14 665.90,701.56 665.29,701.18 C661.43,698.80 655.20,587.37 657.43,560.85 L 658.16 552.20 L 667.66 548.57 C683.50,542.50 691.69,540.88 709.50,540.29 C723.25,539.83 726.95,540.05 735.82,541.87 C761.76,547.16 777.83,561.06 783.70,583.28 C786.31,593.17 785.99,612.34 783.03,623.00 C778.83,638.13 773.81,647.76 762.44,662.51 C748.67,680.37 730.62,693.96 710.73,701.45 C705.17,703.54 702.39,703.97 695.23,703.85 C690.43,703.77 685.38,703.56 684.00,703.40 ZM 708.10 666.93 C715.79,662.00 725.50,650.94 729.99,642.02 C736.60,628.88 738.43,620.77 738.47,604.50 C738.50,591.47 738.32,590.11 735.90,584.95 C730.41,573.25 721.69,567.03 710.75,567.01 C705.46,567.00 705.00,567.18 704.98,569.25 C704.98,570.49 704.31,581.85 703.51,594.50 C702.03,617.77 701.44,670.00 702.66,670.00 C703.03,670.00 705.48,668.62 708.10,666.93 ZM 494.02 518.04 C489.45,509.50 471.53,456.74 463.61,428.50 C456.87,404.47 448.00,367.35 448.00,363.16 C448.00,362.03 463.02,357.27 472.00,355.56 C476.12,354.78 483.40,353.82 488.17,353.44 L 496.84 352.74 L 497.49 357.62 C502.23,392.89 508.34,427.34 513.60,448.50 C517.65,464.77 519.13,469.29 520.09,468.25 C521.15,467.11 525.47,452.14 529.39,436.00 C535.40,411.28 541.03,380.61 545.99,345.61 C547.61,334.12 549.20,324.47 549.50,324.16 C551.20,322.47 590.00,330.95 590.00,333.01 C590.00,335.03 585.71,358.75 583.41,369.50 C573.81,414.20 556.37,466.88 539.01,503.59 L 533.29 515.68 L 526.60 517.36 C522.92,518.29 514.35,519.33 507.57,519.67 C495.49,520.28 495.20,520.25 494.02,518.04 ZM 357.34 505.90 C344.98,503.84 333.06,497.06 323.16,486.47 C314.99,477.72 310.29,467.90 309.32,457.57 C308.73,451.23 308.75,451.18 311.79,449.61 C316.54,447.15 323.42,445.01 331.65,443.44 C344.12,441.05 343.65,440.84 344.27,449.25 C345.23,462.24 348.83,470.36 356.27,476.34 C363.60,482.24 376.72,480.80 381.09,473.61 C384.01,468.80 384.53,462.66 382.45,457.24 C380.03,450.90 374.11,444.80 357.36,431.39 C349.58,425.16 340.89,417.46 338.05,414.28 C331.81,407.31 325.38,394.70 323.88,386.50 C322.35,378.17 323.30,364.75 325.91,357.90 C334.72,334.69 360.35,321.59 390.38,324.94 C401.56,326.18 408.76,328.66 416.77,334.00 C423.51,338.51 427.75,343.46 431.87,351.64 C434.18,356.23 438.00,366.84 438.00,368.67 C438.00,368.83 435.24,370.36 431.87,372.07 C425.71,375.18 417.42,377.27 406.77,378.40 C401.14,379.00 401.03,378.97 400.43,376.26 C396.60,358.86 391.81,352.99 381.50,353.03 C373.93,353.05 370.00,357.08 370.00,364.79 C370.00,375.11 374.68,381.22 395.06,397.51 C414.29,412.88 418.67,417.56 423.98,428.50 C432.97,446.99 431.22,469.46 419.63,484.38 C411.29,495.12 400.06,502.36 386.91,505.46 C380.01,507.08 365.70,507.30 357.34,505.90 ZM 632.23 505.07 C620.57,502.20 612.55,497.61 603.39,488.53 C594.69,479.93 591.11,474.06 588.57,464.28 C586.11,454.78 586.43,451.35 589.92,449.54 C595.96,446.42 612.88,442.00 618.80,442.00 L 621.71 442.00 L 622.26 449.75 C623.22,463.36 629.58,475.25 637.72,478.65 C642.18,480.52 649.83,480.33 654.00,478.25 C658.15,476.18 662.00,469.32 661.99,464.04 C661.97,454.94 655.83,447.55 634.00,430.28 C627.12,424.85 619.10,417.72 616.16,414.45 C600.28,396.74 596.41,370.83 606.78,351.61 C618.47,329.96 649.28,319.22 678.43,326.64 C694.34,330.69 706.22,341.12 711.89,356.00 C716.91,369.21 716.99,368.62 709.82,372.01 C703.60,374.95 694.08,377.36 684.38,378.46 L 679.25 379.04 L 677.56 372.27 C674.28,359.12 668.56,353.00 659.57,353.00 C656.98,353.00 654.00,353.46 652.94,354.03 C648.50,356.41 646.71,364.93 649.16,372.10 C651.52,379.03 656.34,384.17 672.84,397.35 C692.19,412.79 696.56,417.45 702.05,428.50 C711.24,447.00 709.25,469.86 697.11,485.10 C688.96,495.33 677.73,502.44 664.91,505.46 C656.35,507.48 641.31,507.30 632.23,505.07 ZM 731.59 358.10 C730.05,356.40 729.94,354.47 730.55,339.35 L 731.23 322.50 L 716.99 317.00 C709.15,313.98 701.90,310.92 700.87,310.20 C698.94,308.85 698.39,304.51 699.85,302.21 C700.30,301.50 707.61,299.10 716.09,296.88 C724.56,294.66 732.00,292.21 732.62,291.42 C733.24,290.62 734.05,283.43 734.44,275.24 C735.23,258.89 736.19,255.99 740.77,256.02 C742.27,256.02 744.00,256.36 744.61,256.77 C745.78,257.53 751.86,266.51 758.28,276.94 C760.36,280.32 762.66,283.32 763.40,283.60 C764.14,283.88 771.64,282.30 780.08,280.08 C793.76,276.47 795.65,276.19 797.57,277.46 C800.11,279.12 801.00,281.79 799.94,284.54 C799.53,285.62 795.06,291.45 790.02,297.50 C784.98,303.55 780.62,309.03 780.35,309.67 C780.07,310.31 783.71,316.87 788.42,324.24 C797.71,338.75 798.65,341.87 794.52,344.58 C791.71,346.42 792.32,346.57 773.00,339.07 C767.23,336.83 761.77,335.00 760.88,335.00 C759.99,335.00 754.68,340.62 749.08,347.50 C740.46,358.09 738.47,360.00 736.10,360.00 C734.57,360.00 732.54,359.15 731.59,358.10 Z" fill="#F16A34"/>
</svg>
